<?xml version="1.0" encoding="utf-8"?>
<!-- Generator: Adobe Illustrator 19.1.0, SVG Export Plug-In . SVG Version: 6.00 Build 0)  -->
<svg version="1.1" id="Calque_1" xmlns="http://www.w3.org/2000/svg" xmlns:xlink="http://www.w3.org/1999/xlink" x="0px" y="0px"
	 viewBox="5304.9 -1420.6 6137.8 2007.7" style="enable-background:new 5304.9 -1420.6 6137.8 2007.7;" xml:space="preserve">
<style type="text/css">
	.st0{fill:#19D1BF;}
	.st1{clip-path:url(#SVGID_2_);fill:url(#SVGID_3_);}
	.st2{clip-path:url(#SVGID_5_);fill:url(#SVGID_6_);}
	.st3{clip-path:url(#SVGID_8_);fill:url(#SVGID_9_);}
	.st4{clip-path:url(#SVGID_11_);fill:url(#SVGID_12_);}
	.st5{fill:#F9F9F9;}
	.st6{enable-background:new    ;}
	.st7{fill:#FFFFFF;}
</style>
<path class="st0" d="M11442.6,315.8c0,149.8-121.5,271.3-271.3,271.3H5576.2c-149.8,0-271.3-121.5-271.3-271.3v-1465.1
	c0-149.8,121.5-271.3,271.3-271.3h5595.2c149.8,0,271.3,121.5,271.3,271.3L11442.6,315.8L11442.6,315.8z"/>
<g id="PLAY_2_">
	<g>
		<g>
			<defs>
				<path id="SVGID_1_" d="M6635-536.9l-276.8-159.7c0,0-504.2-291.1-533.8-308.2c-29.6-17.1-59.2-6.7-59.2,29
					c0,59.6,0,621.6,0,621.6s0,607.4,0,634.2c0,26.8,21.1,38.4,46.9,23.5c25.7-14.9,546.1-315.3,546.1-315.3L6635-171.7
					c0,0,234.8-135.6,266-153.6s28.2-42.8,1.9-56.9C6876.5-396.4,6635-536.9,6635-536.9z"/>
			</defs>
			<clipPath id="SVGID_2_">
				<use xlink:href="#SVGID_1_"  style="overflow:visible;"/>
			</clipPath>
			
				<linearGradient id="SVGID_3_" gradientUnits="userSpaceOnUse" x1="10229.0947" y1="-86.1245" x2="10229.0947" y2="27.1838" gradientTransform="matrix(12 0 0 12 -116641.1406 -0.6255)">
				<stop  offset="0" style="stop-color:#257CB0"/>
				<stop  offset="0.2863" style="stop-color:#4A93B5"/>
				<stop  offset="0.767" style="stop-color:#78BCBB"/>
				<stop  offset="1" style="stop-color:#89CFBD"/>
			</linearGradient>
			<polygon class="st1" points="5765.2,-1034.1 5765.2,-354.3 5765.2,325.6 6450.8,-354.2 			"/>
		</g>
	</g>
	<g>
		<g>
			<defs>
				<path id="SVGID_4_" d="M6635-536.9l-276.8-159.7c0,0-504.2-291.1-533.8-308.2c-29.6-17.1-59.2-6.7-59.2,29
					c0,59.6,0,621.6,0,621.6s0,607.4,0,634.2c0,26.8,21.1,38.4,46.9,23.5c25.7-14.9,546.1-315.3,546.1-315.3L6635-171.7
					c0,0,234.8-135.6,266-153.6s28.2-42.8,1.9-56.9C6876.5-396.4,6635-536.9,6635-536.9z"/>
			</defs>
			<clipPath id="SVGID_5_">
				<use xlink:href="#SVGID_4_"  style="overflow:visible;"/>
			</clipPath>
			
				<linearGradient id="SVGID_6_" gradientUnits="userSpaceOnUse" x1="10200.5283" y1="-57.9995" x2="10273.0117" y2="-57.9995" gradientTransform="matrix(12 0 0 12 -116641.1406 -0.6255)">
				<stop  offset="0" style="stop-color:#52C1AD"/>
				<stop  offset="1" style="stop-color:#DEE89A"/>
			</linearGradient>
			<polygon class="st2" points="6635,-536.9 6358.2,-696.6 5765.2,-1039 5765.2,-1034.1 6450.8,-354.2 			"/>
		</g>
	</g>
	<g>
		<g>
			<defs>
				<path id="SVGID_7_" d="M6635-536.9l-276.8-159.7c0,0-504.2-291.1-533.8-308.2c-29.6-17.1-59.2-6.7-59.2,29
					c0,59.6,0,621.6,0,621.6s0,607.4,0,634.2c0,26.8,21.1,38.4,46.9,23.5c25.7-14.9,546.1-315.3,546.1-315.3L6635-171.7
					c0,0,234.8-135.6,266-153.6s28.2-42.8,1.9-56.9C6876.5-396.4,6635-536.9,6635-536.9z"/>
			</defs>
			<clipPath id="SVGID_8_">
				<use xlink:href="#SVGID_7_"  style="overflow:visible;"/>
			</clipPath>
			
				<linearGradient id="SVGID_9_" gradientUnits="userSpaceOnUse" x1="10236.7705" y1="-29.4662" x2="10236.7705" y2="27.5921" gradientTransform="matrix(12 0 0 12 -116641.1406 -0.6255)">
				<stop  offset="0" style="stop-color:#EC413D"/>
				<stop  offset="0.1668" style="stop-color:#DA4452"/>
				<stop  offset="0.5748" style="stop-color:#B0487A"/>
				<stop  offset="0.8619" style="stop-color:#954A92"/>
				<stop  offset="1" style="stop-color:#8A4A9D"/>
			</linearGradient>
			<polygon class="st3" points="5765.2,325.6 5765.2,330.5 6358.2,-11.9 6635,-171.7 6450.8,-354.2 			"/>
		</g>
	</g>
	<g>
		<g>
			<defs>
				<path id="SVGID_10_" d="M6635-536.9l-276.8-159.7c0,0-504.2-291.1-533.8-308.2c-29.6-17.1-59.2-6.7-59.2,29
					c0,59.6,0,621.6,0,621.6s0,607.4,0,634.2c0,26.8,21.1,38.4,46.9,23.5c25.7-14.9,546.1-315.3,546.1-315.3L6635-171.7
					c0,0,234.8-135.6,266-153.6s28.2-42.8,1.9-56.9C6876.5-396.4,6635-536.9,6635-536.9z"/>
			</defs>
			<clipPath id="SVGID_11_">
				<use xlink:href="#SVGID_10_"  style="overflow:visible;"/>
			</clipPath>
			
				<linearGradient id="SVGID_12_" gradientUnits="userSpaceOnUse" x1="10278.5156" y1="-44.6912" x2="10278.5156" y2="-14.2579" gradientTransform="matrix(12 0 0 12 -116641.1406 -0.6255)">
				<stop  offset="0" style="stop-color:#F58879"/>
				<stop  offset="0.1194" style="stop-color:#F69079"/>
				<stop  offset="0.7128" style="stop-color:#FCB877"/>
				<stop  offset="1" style="stop-color:#FEC874"/>
			</linearGradient>
			<polygon class="st4" points="6635,-536.9 6450.8,-354.2 6635,-171.7 6951.3,-354.3 			"/>
		</g>
	</g>
</g>
<path class="st5" d="M10081.6-88.5c-25.8,0-49.2-4.8-70.5-14.2c-21.3-9.5-39.2-24.1-53.6-43.8h-4.3c2.9,23.1,4.3,45,4.3,65.7V81.9
	h-59.9v-573h48.7l8.3,54.1h2.9c15.4-21.7,33.3-37.3,53.8-46.9s43.9-14.4,70.3-14.4c52.4,0,92.9,17.9,121.4,53.8
	c28.5,35.8,42.8,86.1,42.8,150.8c0,64.9-14.5,115.4-43.5,151.4C10173.3-106.4,10133-88.5,10081.6-88.5z M10072.9-447.4
	c-40.4,0-69.6,11.2-87.7,33.6c-18,22.4-27.3,58-27.8,106.8v13.3c0,55.6,9.3,95.3,27.8,119.3c18.5,23.9,48.2,35.9,89.1,35.9
	c34.2,0,60.9-13.8,80.3-41.5c19.3-27.6,29-65.8,29-114.4c0-49.3-9.7-87.1-29-113.5C10135.3-434.3,10108-447.4,10072.9-447.4z"/>
<path class="st5" d="M10384.4-95.7h-59.9v-561.4h59.9V-95.7z"/>
<path class="st5" d="M10728.7-95.7l-11.9-56.3h-2.9c-19.7,24.8-39.4,41.6-59,50.3c-19.6,8.8-44.1,13.2-73.4,13.2
	c-39.2,0-69.9-10.1-92.2-30.3c-22.3-20.2-33.4-48.9-33.4-86.2c0-79.8,63.9-121.7,191.6-125.6l67.1-2.2v-24.5c0-31-6.7-54-20-68.7
	c-13.3-14.8-34.7-22.2-64-22.2c-33,0-70.2,10.1-111.8,30.3l-18.4-45.8c19.5-10.6,40.8-18.9,64.1-24.9c23.2-6,46.5-9,69.8-9
	c47.1,0,82.1,10.5,104.8,31.4c22.7,20.9,34.1,54.5,34.1,100.7v269.8H10728.7L10728.7-95.7z M10593.4-137.9
	c37.3,0,66.5-10.2,87.8-30.7c21.3-20.4,31.9-49.1,31.9-85.9v-35.7l-59.9,2.5c-47.6,1.7-81.9,9.1-103,22.2
	c-21,13.1-31.6,33.5-31.6,61.2c0,21.6,6.5,38.1,19.7,49.4C10551.5-143.5,10569.8-137.9,10593.4-137.9z"/>
<path class="st5" d="M10807.8-491.1h64.2l86.6,225.5c19,51.5,30.8,88.6,35.4,111.5h2.9c3.1-12.3,9.7-33.3,19.7-63s42.6-121,97.9-274
	h64.2l-169.9,450.3c-16.8,44.5-36.5,76.1-59,94.7c-22.5,18.6-50.1,27.9-82.8,27.9c-18.3,0-36.3-2-54.1-6.1v-48
	c13.2,2.9,28,4.3,44.4,4.3c41.1,0,70.5-23.1,88-69.3l22-56.3L10807.8-491.1z"/>
<path class="st5" d="M8972.2-454.4c19,15.7,58.7,48.8,58.7,111.7c0,61.2-34.7,90.2-69.5,117.4c-10.8,10.7-23.2,22.4-23.2,40.6
	s12.4,28.1,21.5,35.5l29.8,23.1c36.4,30.6,69.4,58.8,69.4,115.8c0,77.7-75.3,156.3-217.5,156.3c-119.9,0-177.8-57-177.8-118.3
	c0-29.8,14.8-71.9,63.7-100.9c51.2-31.4,120.8-35.5,158-38.1c-11.6-14.9-24.8-30.6-24.8-56.2c0-14,4.2-22.3,8.3-32.3
	c-9.1,0.8-18.2,1.7-26.5,1.7c-87.6,0-137.3-65.3-137.3-129.8c0-38.1,17.4-80.3,52.9-110.8c47.2-38.9,103.4-45.5,148.1-45.5h170.3
	l-52.9,29.8H8972.2L8972.2-454.4z M8913.4-87.1c-6.6-0.9-10.8-0.9-19-0.9c-7.4,0-52.2,1.7-86.9,13.3c-18.2,6.6-71.1,26.4-71.1,85.2
	c0,58.7,57.1,100.9,145.6,100.9c79.3,0,121.6-38.1,121.6-89.4C9003.6-20.2,8976.3-42.5,8913.4-87.1z M8937.4-244.3
	c19-19,20.6-45.5,20.6-60.4c0-59.5-35.5-152.2-104.2-152.2c-21.5,0-44.7,10.7-57.9,27.3c-14,17.4-18.2,39.7-18.2,61.2
	c0,55.4,32.3,147.2,103.4,147.2C8901.9-221.1,8924.1-231,8937.4-244.3z"/>
<path class="st5" d="M8451.5-100.4c-131.3,0-201.5-102.4-201.5-194.9c0-108.2,88.3-200.6,213.9-200.6
	c121.3,0,197.3,94.9,197.3,194.9C8661.2-203.6,8586.1-100.4,8451.5-100.4z M8554.7-167.2c19.8-26.4,24.8-59.5,24.8-91.7
	c0-72.7-34.7-211.4-137.1-211.4c-27.2,0-54.5,10.8-74.3,28.1c-32.2,28.9-38,65.2-38,100.8c0,81.7,40.5,216.2,140.4,216.2
	C8502.7-125.2,8535.8-140.9,8554.7-167.2z"/>
<path class="st5" d="M8004-100.4c-131.3,0-201.5-102.4-201.5-194.9c0-108.2,88.4-200.6,213.9-200.6c121.4,0,197.3,94.9,197.3,194.9
	C8213.7-203.6,8138.6-100.4,8004-100.4z M8107.2-167.2c19.8-26.5,24.8-59.5,24.8-91.7c0-72.7-34.7-211.4-137.1-211.4
	c-27.2,0-54.5,10.8-74.3,28.1c-32.2,28.9-38,65.2-38,100.8c0,81.7,40.4,216.2,140.4,216.2C8055.2-125.2,8088.2-140.9,8107.2-167.2z"
	/>
<path class="st5" d="M7739.4-113.3l-118.7,27.4c-48.2,7.5-91.3,14.1-137,14.1c-229.2,0-316.3-168.5-316.3-300.5
	c0-161,123.7-310.4,335.4-310.4c44.8,0,88,6.6,127,17.4c62.3,17.4,91.3,39,109.6,51.5l-68.9,65.6l-29,6.6l20.7-33.2
	c-28.2-27.4-79.7-78-177.6-78c-131.2,0-230,99.7-230,244.9c0,156,112.9,303,293.9,303c53.2,0,80.5-10.8,105.4-20.8v-133.7
	l-125.3,6.6l66.4-35.7h176l-21.6,20.7c-5.9,5-6.7,6.7-8.3,13.3c-0.9,7.5-1.6,31.6-1.6,39.9L7739.4-113.3L7739.4-113.3z"/>
<path class="st5" d="M9234.5-137.2c-27.4-2.5-33.1-7.5-33.1-39.9v-9.1v-460.7c0.2-1.8,0.3-3.6,0.4-5.4c3.3-29,11.6-34,37.4-49
	h-118.8l-62.3,29.9h63.5v0.4v-0.3v485.1v27.4c0,16.6-3.3,19.1-22.4,44h147l30.7-18.2C9262.8-134.8,9248.7-135.6,9234.5-137.2z"/>
<path class="st5" d="M9572.3-129.6c-9,5-18.1,10.8-27.1,14.8c-27.3,12.4-55.3,15.7-80.1,15.7c-26.3,0-67.6-1.7-109.7-32.2
	c-58.5-41.3-84-112.2-84-174c0-127.8,103.9-190.4,188.8-190.4c29.7,0,60.2,7.4,85,23.1c41.2,27.2,51.9,62.6,57.6,81.6l-193.7,78.3
	l-63.5,4.9c20.6,104.7,91.5,165.7,169.8,165.7c42,0,72.6-14.8,100.6-28.8L9572.3-129.6z M9494.9-375.3c15.6-5.7,23.9-10.7,23.9-22.2
	c0-33-37.1-70.9-81.6-70.9c-33,0-94.8,25.6-94.8,114.6c0,14,1.7,28.8,2.5,43.7L9494.9-375.3z"/>
<path class="st5" d="M9651.9-490v54.4h-6.6V-490h-18v-5.6h42.6v5.6H9651.9L9651.9-490z"/>
<path class="st5" d="M9726.1-435.6v-54.9h-0.3l-16.8,54.9h-5.2l-16.9-54.9h-0.2v54.9h-6v-60h10.3l15.3,48.5h0.2l15.1-48.5h10.4v60
	H9726.1z"/>
<g class="st6">
	<path class="st7" d="M7276.5-897.3h-63.9l-13.4,38.4h-29.8l62.3-164.9h25.7l62.4,164.9H7290L7276.5-897.3z M7220.7-920.4h47.8
		l-23.9-68.4L7220.7-920.4z"/>
	<path class="st7" d="M7373-920.1v61.2h-28.7v-164.9h63.1c18.4,0,33,4.8,43.9,14.4c10.8,9.6,16.3,22.3,16.3,38.1
		c0,16.2-5.3,28.8-15.9,37.8c-10.6,9-25.5,13.5-44.6,13.5H7373z M7373-943.2h34.4c10.2,0,18-2.4,23.3-7.2c5.4-4.8,8-11.7,8-20.8
		c0-8.9-2.7-16-8.2-21.3c-5.4-5.3-12.9-8.1-22.4-8.2H7373V-943.2z"/>
	<path class="st7" d="M7527-920.1v61.2h-28.7v-164.9h63.1c18.4,0,33,4.8,43.9,14.4c10.8,9.6,16.2,22.3,16.2,38.1
		c0,16.2-5.3,28.8-15.9,37.8c-10.6,9-25.5,13.5-44.6,13.5H7527z M7527-943.2h34.4c10.2,0,18-2.4,23.3-7.2c5.4-4.8,8-11.7,8-20.8
		c0-8.9-2.7-16-8.2-21.3c-5.4-5.3-12.9-8.1-22.4-8.2H7527V-943.2z"/>
	<path class="st7" d="M7681.1-882.1h74.9v23.1h-103.5v-164.9h28.7V-882.1z"/>
	<path class="st7" d="M7813.9-859h-28.5v-164.9h28.5V-859z"/>
	<path class="st7" d="M7980.8-912.6c-1.7,17.6-8.2,31.3-19.5,41.2c-11.3,9.9-26.4,14.8-45.2,14.8c-13.1,0-24.7-3.1-34.7-9.3
		s-17.7-15.1-23.2-26.6c-5.4-11.5-8.3-24.8-8.5-40V-948c0-15.6,2.8-29.3,8.3-41.1c5.5-11.9,13.4-21,23.7-27.4
		c10.3-6.4,22.2-9.6,35.7-9.6c18.2,0,32.8,4.9,43.9,14.8c11.1,9.9,17.6,23.8,19.4,41.8h-28.5c-1.4-11.9-4.8-20.4-10.4-25.7
		c-5.6-5.2-13.7-7.9-24.4-7.9c-12.5,0-22,4.6-28.7,13.7c-6.7,9.1-10.1,22.5-10.2,40.1v14.6c0,17.8,3.2,31.4,9.6,40.8
		c6.4,9.4,15.7,14.1,28,14.1c11.2,0,19.7-2.5,25.4-7.6c5.7-5.1,9.2-13.5,10.8-25.3H7980.8z"/>
	<path class="st7" d="M8104.5-897.3h-63.9l-13.4,38.4h-29.8l62.3-164.9h25.7l62.4,164.9h-29.9L8104.5-897.3z M8048.6-920.4h47.8
		l-23.9-68.4L8048.6-920.4z"/>
	<path class="st7" d="M8277.9-1000.7h-51.4V-859H8198v-141.8h-51v-23.1h130.8V-1000.7z"/>
	<path class="st7" d="M8335.5-859H8307v-164.9h28.5V-859z"/>
	<path class="st7" d="M8508.2-937.1c0,16.2-2.8,30.3-8.4,42.5c-5.6,12.2-13.6,21.6-24,28.1c-10.4,6.5-22.3,9.8-35.8,9.8
		c-13.4,0-25.3-3.3-35.7-9.8c-10.5-6.5-18.5-15.8-24.2-27.9c-5.7-12.1-8.6-26-8.7-41.8v-9.3c0-16.1,2.8-30.3,8.5-42.6
		c5.7-12.3,13.7-21.7,24.1-28.3c10.4-6.5,22.3-9.8,35.7-9.8c13.4,0,25.3,3.2,35.7,9.7s18.4,15.7,24.1,27.9
		c5.7,12.1,8.5,26.2,8.6,42.3V-937.1z M8479.5-945.7c0-18.3-3.5-32.3-10.4-42c-6.9-9.7-16.7-14.6-29.4-14.6
		c-12.4,0-22.1,4.9-29,14.6c-7,9.7-10.6,23.4-10.7,41.2v9.5c0,18.1,3.5,32.1,10.6,42c7.1,9.9,16.9,14.8,29.4,14.8
		c12.7,0,22.4-4.8,29.3-14.5c6.8-9.7,10.2-23.8,10.2-42.4V-945.7z"/>
	<path class="st7" d="M8673.3-859h-28.7l-73.5-117v117h-28.7v-164.9h28.7l73.7,117.4v-117.4h28.4V-859z"/>
	<path class="st7" d="M8868.8-897.3h-63.9l-13.4,38.4h-29.8l62.3-164.9h25.7l62.4,164.9h-29.9L8868.8-897.3z M8813-920.4h47.8
		l-23.9-68.4L8813-920.4z"/>
	<path class="st7" d="M9067.5-859h-28.7l-73.5-117v117h-28.7v-164.9h28.7l73.7,117.4v-117.4h28.4V-859z"/>
	<path class="st7" d="M9107.1-859v-164.9h48.7c14.6,0,27.5,3.2,38.8,9.7c11.3,6.5,20,15.7,26.2,27.6c6.2,11.9,9.3,25.6,9.3,41v8.3
		c0,15.6-3.1,29.4-9.3,41.2c-6.2,11.9-15.1,21-26.6,27.4c-11.5,6.4-24.7,9.6-39.6,9.6H9107.1z M9135.8-1000.7v118.7h18.7
		c15,0,26.6-4.7,34.6-14.1c8-9.4,12.1-22.9,12.3-40.4v-9.2c0-17.9-3.9-31.5-11.7-40.9c-7.8-9.4-19.1-14.1-33.9-14.1H9135.8z"/>
	<path class="st7" d="M9325-922.4h-31.9v63.4h-28.7v-164.9h58c19,0,33.7,4.3,44.1,12.8c10.3,8.5,15.5,20.9,15.5,37.1
		c0,11-2.7,20.3-8,27.7c-5.3,7.4-12.7,13.2-22.3,17.2l37,68.7v1.5h-30.7L9325-922.4z M9293.1-945.5h29.4c9.7,0,17.2-2.4,22.7-7.3
		c5.4-4.9,8.2-11.5,8.2-20c0-8.8-2.5-15.7-7.5-20.5c-5-4.8-12.5-7.3-22.5-7.5h-30.2V-945.5z"/>
	<path class="st7" d="M9546.6-937.1c0,16.2-2.8,30.3-8.4,42.5c-5.6,12.2-13.6,21.6-24,28.1c-10.4,6.5-22.3,9.8-35.8,9.8
		c-13.4,0-25.3-3.3-35.7-9.8c-10.5-6.5-18.5-15.8-24.2-27.9c-5.7-12.1-8.6-26-8.7-41.8v-9.3c0-16.1,2.8-30.3,8.6-42.6
		c5.7-12.3,13.7-21.7,24.1-28.3c10.4-6.5,22.3-9.8,35.7-9.8c13.4,0,25.3,3.2,35.7,9.7c10.4,6.5,18.4,15.7,24.1,27.9
		c5.7,12.1,8.5,26.2,8.6,42.3V-937.1z M9517.9-945.7c0-18.3-3.5-32.3-10.4-42c-6.9-9.7-16.7-14.6-29.4-14.6
		c-12.4,0-22.1,4.9-29,14.6c-7,9.7-10.6,23.4-10.7,41.2v9.5c0,18.1,3.5,32.1,10.6,42c7.1,9.9,16.9,14.8,29.4,14.8
		c12.7,0,22.4-4.8,29.3-14.5c6.8-9.7,10.2-23.8,10.2-42.4V-945.7z"/>
	<path class="st7" d="M9611.2-859h-28.5v-164.9h28.5V-859z"/>
	<path class="st7" d="M9652.2-859v-164.9h48.7c14.6,0,27.5,3.2,38.8,9.7c11.3,6.5,20,15.7,26.2,27.6c6.2,11.9,9.3,25.6,9.3,41v8.3
		c0,15.6-3.1,29.4-9.3,41.2c-6.2,11.9-15.1,21-26.6,27.4c-11.5,6.4-24.7,9.6-39.6,9.6H9652.2z M9680.8-1000.7v118.7h18.7
		c15,0,26.6-4.7,34.6-14.1s12.1-22.9,12.3-40.4v-9.2c0-17.9-3.9-31.5-11.7-40.9c-7.8-9.4-19.1-14.1-33.9-14.1H9680.8z"/>
	<path class="st7" d="M9959.2-901.4c0-7.2-2.5-12.8-7.6-16.8c-5.1-3.9-14.3-7.9-27.6-11.9c-13.3-4-23.9-8.5-31.7-13.4
		c-15-9.4-22.5-21.7-22.5-36.9c0-13.3,5.4-24.2,16.3-32.8c10.8-8.6,24.9-12.9,42.2-12.9c11.5,0,21.7,2.1,30.7,6.3
		c9,4.2,16,10.2,21.2,18.1c5.1,7.8,7.7,16.5,7.7,26h-28.5c0-8.5-2.7-15.2-8.1-20c-5.4-4.8-13.1-7.2-23.2-7.2c-9.4,0-16.6,2-21.8,6
		c-5.2,4-7.8,9.5-7.8,16.7c0,6,2.8,11,8.4,15.1c5.6,4,14.8,7.9,27.6,11.7c12.8,3.8,23.1,8.1,30.9,13c7.8,4.9,13.5,10.5,17.1,16.8
		c3.6,6.3,5.4,13.7,5.4,22.1c0,13.7-5.3,24.7-15.8,32.8c-10.5,8.1-24.8,12.2-42.9,12.2c-11.9,0-22.9-2.2-32.9-6.6
		c-10-4.4-17.8-10.5-23.3-18.3c-5.5-7.8-8.3-16.8-8.3-27.2h28.7c0,9.4,3.1,16.6,9.3,21.7c6.2,5.1,15.1,7.7,26.6,7.7
		c10,0,17.5-2,22.5-6.1C9956.7-889.4,9959.2-894.8,9959.2-901.4z"/>
	<path class="st7" d="M10139.4-1023.8v110.2c0,17.5-5.6,31.4-16.8,41.6c-11.2,10.2-26.1,15.3-44.8,15.3c-18.9,0-33.9-5-45-15.1
		c-11.1-10.1-16.6-24.1-16.6-42v-110.1h28.5v110.1c0,11,2.8,19.4,8.4,25.2s13.8,8.7,24.7,8.7c22,0,33.1-11.6,33.1-34.8v-109.2
		H10139.4z"/>
	<path class="st7" d="M10236.4-922.4h-31.9v63.4h-28.7v-164.9h58c19,0,33.7,4.3,44.1,12.8c10.3,8.5,15.5,20.9,15.5,37.1
		c0,11-2.7,20.3-8,27.7c-5.3,7.4-12.7,13.2-22.3,17.2l37,68.7v1.5h-30.7L10236.4-922.4z M10204.5-945.5h29.4
		c9.7,0,17.2-2.4,22.7-7.3c5.4-4.9,8.2-11.5,8.2-20c0-8.8-2.5-15.7-7.5-20.5c-5-4.8-12.5-7.3-22.5-7.5h-30.2V-945.5z"/>
</g>
</svg>
