<?xml version="1.0" encoding="utf-8"?>
<!-- Generator: Adobe Illustrator 19.1.0, SVG Export Plug-In . SVG Version: 6.00 Build 0)  -->
<svg version="1.1" id="Calque_1" xmlns:sketch="http://www.bohemiancoding.com/sketch/ns"
	 xmlns="http://www.w3.org/2000/svg" xmlns:xlink="http://www.w3.org/1999/xlink" x="0px" y="0px" viewBox="676 92.6 1525.1 500"
	 style="enable-background:new 676 92.6 1525.1 500;" xml:space="preserve">
<style type="text/css">
	.st0{fill:#19D1BF;}
	.st1{fill:#FFFFFF;}
</style>
<title>GooglePlay</title>
<desc>Created with Sketch.</desc>
<g id="GooglePlay" sketch:type="MSArtboardGroup">
	<g id="App-Store" transform="translate(20.000000, 16.000000)" sketch:type="MSLayerGroup">
		<path id="background" sketch:type="MSShapeGroup" class="st0" d="M716,76.6h1405.1c33.1,0,60,26.9,60,60v380c0,33.1-26.9,60-60,60
			H716c-33.1,0-60-26.9-60-60v-380C656,103.4,682.9,76.6,716,76.6z"/>
		<g id="icon" transform="translate(130.000000, 88.000000)" sketch:type="MSShapeGroup">
			<path id="Fill-2" class="st1" d="M849.3,227.1c-0.3-35.8,29.3-53.2,30.6-54c-16.8-24.4-42.8-27.8-51.9-28.1
				c-21.8-2.3-43,13.1-54.1,13.1c-11.3,0-28.5-12.8-46.9-12.5c-23.7,0.4-46,14.1-58.1,35.5c-25.1,43.5-6.4,107.5,17.7,142.7
				c12.1,17.2,26.1,36.5,44.6,35.8c18-0.7,24.8-11.5,46.5-11.5c21.6,0,27.9,11.5,46.7,11.1c19.4-0.3,31.5-17.3,43.2-34.7
				c13.9-19.7,19.5-39.2,19.7-40.2C886.8,284.2,849.7,270,849.3,227.1"/>
			<path id="Fill-3" class="st1" d="M813.8,122c9.7-12.1,16.3-28.6,14.5-45.4c-14,0.6-31.6,9.7-41.7,21.6
				c-8.9,10.5-16.9,27.6-14.9,43.7C787.5,143,803.7,133.9,813.8,122"/>
		</g>
		<g transform="translate(459.000000, 218.000000)" sketch:type="MSShapeGroup">
			<path id="Fill-4" class="st1" d="M781.5,227.2h-25.2l-13.8-43.4h-48l-13.1,43.4h-24.5l47.6-147.7h29.4L781.5,227.2L781.5,227.2z
				 M738.4,165.6L725.9,127c-1.3-4-3.8-13.2-7.4-27.8H718c-1.5,6.3-3.8,15.6-7,27.8l-12.3,38.6H738.4L738.4,165.6z"/>
			<path id="Fill-5" class="st1" d="M903.6,172.6c0,18.1-4.9,32.4-14.8,42.9c-8.8,9.4-19.8,14-32.8,14c-14.1,0-24.2-5-30.4-15.1
				v55.9h-23.7V155.7c0-11.4-0.3-23-0.9-35h20.8l1.3,16.9h0.4c7.9-12.7,19.9-19.1,35.9-19.1c12.6,0,23,5,31.4,14.9
				C899.4,143.4,903.6,156.4,903.6,172.6L903.6,172.6z M879.5,173.5c0-10.4-2.3-18.9-7-25.6c-5.1-7-12-10.5-20.6-10.5
				c-5.8,0-11.1,2-15.9,5.8c-4.7,3.9-7.9,8.9-9.3,15.2c-0.7,2.9-1.1,5.3-1.1,7.2v17.8c0,7.7,2.4,14.3,7.1,19.6s10.9,8,18.5,8
				c8.9,0,15.8-3.5,20.8-10.3C877,193.8,879.5,184.8,879.5,173.5L879.5,173.5z"/>
			<path id="Fill-6" class="st1" d="M1026,172.6c0,18.1-4.9,32.4-14.8,42.9c-8.8,9.4-19.8,14-32.8,14c-14.1,0-24.2-5-30.4-15.1v55.9
				h-23.7V155.7c0-11.4-0.3-23-0.9-35h20.8l1.3,16.9h0.4c7.9-12.7,19.9-19.1,35.9-19.1c12.6,0,23,5,31.4,14.9
				C1021.8,143.4,1026,156.4,1026,172.6L1026,172.6z M1001.9,173.5c0-10.4-2.3-18.9-7-25.6c-5.1-7-12-10.5-20.6-10.5
				c-5.8,0-11.1,2-15.9,5.8c-4.7,3.9-7.8,8.9-9.3,15.2c-0.7,2.9-1.1,5.3-1.1,7.2v17.8c0,7.7,2.4,14.3,7.1,19.6
				c4.7,5.3,10.9,8,18.5,8c8.9,0,15.9-3.5,20.8-10.3C999.5,193.8,1001.9,184.8,1001.9,173.5L1001.9,173.5z"/>
			<path id="Fill-7" class="st1" d="M1163,185.8c0,12.6-4.4,22.8-13.1,30.7c-9.6,8.6-23,12.9-40.2,12.9c-15.9,0-28.6-3.1-38.2-9.2
				l5.5-19.7c10.4,6.1,21.8,9.2,34.2,9.2c8.9,0,15.9-2,20.8-6c5-4,7.5-9.4,7.5-16.1c0-6-2.1-11-6.1-15.1
				c-4.1-4.1-10.9-7.9-20.4-11.4c-26.1-9.7-39-23.8-39-42.4c0-12.1,4.6-22,13.7-29.8c9.1-7.7,21.2-11.6,36.3-11.6
				c13.4,0,24.6,2.3,33.5,7l-5.9,19.3c-8.4-4.5-17.8-6.8-28.4-6.8c-8.3,0-14.9,2.1-19.6,6.1c-3.9,3.7-5.9,8.1-5.9,13.4
				c0,5.8,2.3,10.7,6.8,14.4c3.9,3.5,11.1,7.3,21.5,11.4c12.7,5.1,22,11.1,28,18S1163,175.6,1163,185.8"/>
			<path id="Fill-8" class="st1" d="M1241.4,138.5h-26.1v51.7c0,13.1,4.6,19.7,13.8,19.7c4.2,0,7.7-0.4,10.5-1.1l0.7,18
				c-4.7,1.7-10.8,2.6-18.4,2.6c-9.4,0-16.6-2.9-21.9-8.6c-5.3-5.7-7.9-15.3-7.9-28.7v-53.7h-15.5v-17.7h15.5v-19.5l23.2-7v26.5
				h26.1L1241.4,138.5"/>
			<path id="Fill-9" class="st1" d="M1358.8,173.1c0,16.4-4.7,29.8-14,40.3c-9.8,10.8-22.8,16.2-39,16.2c-15.6,0-28.1-5.2-37.4-15.5
				c-9.3-10.4-13.9-23.4-13.9-39.2c0-16.5,4.8-30,14.3-40.5c9.6-10.5,22.5-15.8,38.7-15.8c15.6,0,28.2,5.2,37.7,15.6
				C1354.3,144.2,1358.8,157.1,1358.8,173.1L1358.8,173.1z M1334.3,173.6c0-9.8-2.1-18.1-6.3-25.1c-5-8.5-12.1-12.7-21.3-12.7
				c-9.5,0-16.8,4.2-21.7,12.7c-4.3,7-6.3,15.5-6.3,25.6c0,9.8,2.1,18.2,6.3,25.1c5.1,8.5,12.3,12.7,21.5,12.7
				c9,0,16.1-4.3,21.3-12.9C1332.1,191.8,1334.3,183.4,1334.3,173.6L1334.3,173.6z"/>
			<path id="Fill-10" class="st1" d="M1435.8,141.5c-2.3-0.4-4.8-0.6-7.5-0.6c-8.3,0-14.8,3.1-19.3,9.4c-3.9,5.5-5.9,12.6-5.9,21
				v55.9h-23.7v-73c0-12.3-0.2-23.5-0.7-33.5h20.6l0.9,20.4h0.7c2.5-7,6.4-12.7,11.8-16.9c5.3-3.8,11-5.7,17.1-5.7
				c2.2,0,4.2,0.2,5.9,0.4L1435.8,141.5"/>
			<path id="Fill-11" class="st1" d="M1541.6,168.9c0,4.2-0.3,7.8-0.9,10.7h-71c0.3,10.5,3.7,18.6,10.3,24.1
				c6,4.9,13.7,7.4,23.2,7.4c10.5,0,20.1-1.7,28.7-5l3.7,16.4c-10.1,4.4-22,6.6-35.7,6.6c-16.5,0-29.5-4.9-38.9-14.6
				c-9.4-9.7-14.1-22.8-14.1-39.1c0-16,4.4-29.4,13.2-40.1c9.2-11.4,21.6-17.1,37.2-17.1c15.3,0,27,5.7,34.8,17.1
				C1538.4,144.4,1541.6,155.6,1541.6,168.9L1541.6,168.9z M1519,162.8c0.2-7-1.4-13.1-4.6-18.2c-4.1-6.6-10.4-9.9-18.8-9.9
				c-7.7,0-14,3.2-18.8,9.6c-3.9,5.1-6.3,11.3-7,18.4L1519,162.8L1519,162.8z"/>
		</g>
		<g>
			<path class="st1" d="M1153.5,243h-14.8l-3.1,8.9h-6.9l14.4-38.1h5.9l14.4,38.1h-6.9L1153.5,243z M1140.6,237.7h11l-5.5-15.8
				L1140.6,237.7z"/>
			<path class="st1" d="M1176.1,237.7v14.1h-6.6v-38.1h14.5c4.3,0,7.6,1.1,10.1,3.3s3.8,5.2,3.8,8.8c0,3.7-1.2,6.6-3.7,8.7
				c-2.5,2.1-5.9,3.1-10.3,3.1L1176.1,237.7L1176.1,237.7z M1176.1,232.4h8c2.4,0,4.2-0.6,5.4-1.7c1.2-1.1,1.9-2.7,1.9-4.8
				s-0.6-3.7-1.9-4.9s-3-1.9-5.2-1.9h-8.1L1176.1,232.4L1176.1,232.4z"/>
			<path class="st1" d="M1211.9,237.7v14.1h-6.6v-38.1h14.6c4.3,0,7.6,1.1,10.1,3.3s3.8,5.2,3.8,8.8c0,3.7-1.2,6.6-3.7,8.7
				c-2.5,2.1-5.9,3.1-10.3,3.1L1211.9,237.7L1211.9,237.7z M1211.9,232.4h8c2.4,0,4.2-0.6,5.4-1.7c1.2-1.1,1.9-2.7,1.9-4.8
				s-0.6-3.7-1.9-4.9s-3-1.9-5.2-1.9h-8.1L1211.9,232.4L1211.9,232.4z"/>
			<path class="st1" d="M1247.8,246.5h17.3v5.3h-23.9v-38.1h6.6L1247.8,246.5L1247.8,246.5z"/>
			<path class="st1" d="M1278.8,251.9h-6.6v-38.1h6.6V251.9z"/>
			<path class="st1" d="M1317.6,239.5c-0.4,4.1-1.9,7.2-4.5,9.5s-6.1,3.4-10.4,3.4c-3,0-5.7-0.7-8-2.2c-2.3-1.4-4.1-3.5-5.4-6.1
				c-1.3-2.7-1.9-5.7-2-9.2v-3.6c0-3.6,0.6-6.8,1.9-9.5s3.1-4.8,5.5-6.3s5.1-2.2,8.3-2.2c4.2,0,7.6,1.1,10.2,3.4
				c2.6,2.3,4.1,5.5,4.5,9.7h-6.7c-0.3-2.7-1.1-4.7-2.4-5.9c-1.3-1.2-3.2-1.8-5.6-1.8c-2.9,0-5.1,1.1-6.6,3.2s-2.3,5.2-2.4,9.3v3.4
				c0,4.1,0.7,7.3,2.2,9.4s3.6,3.2,6.5,3.2c2.6,0,4.6-0.6,5.9-1.8c1.3-1.2,2.1-3.1,2.5-5.8L1317.6,239.5L1317.6,239.5z"/>
			<path class="st1" d="M1346.4,243h-14.8l-3.1,8.9h-6.9l14.4-38.1h5.9l14.4,38.1h-6.9L1346.4,243z M1333.5,237.7h11l-5.5-15.8
				L1333.5,237.7z"/>
			<path class="st1" d="M1386.8,219.1h-11.9v32.8h-6.6v-32.8h-11.8v-5.3h30.2v5.3H1386.8z"/>
			<path class="st1" d="M1400.4,251.9h-6.6v-38.1h6.6V251.9z"/>
			<path class="st1" d="M1440.5,233.8c0,3.7-0.6,7-1.9,9.8s-3.1,5-5.5,6.5s-5.2,2.3-8.3,2.3c-3.1,0-5.8-0.8-8.3-2.3
				c-2.4-1.5-4.3-3.7-5.6-6.5c-1.3-2.8-2-6-2-9.7v-2.1c0-3.7,0.7-7,2-9.8s3.2-5,5.6-6.5s5.2-2.3,8.3-2.3c3.1,0,5.9,0.7,8.3,2.2
				s4.3,3.6,5.6,6.4c1.3,2.8,2,6.1,2,9.8v2.2H1440.5z M1433.9,231.8c0-4.2-0.8-7.5-2.4-9.7c-1.6-2.3-3.9-3.4-6.8-3.4
				s-5.1,1.1-6.7,3.4c-1.6,2.2-2.4,5.4-2.5,9.5v2.2c0,4.2,0.8,7.4,2.4,9.7s3.9,3.4,6.8,3.4s5.2-1.1,6.8-3.3c1.6-2.2,2.4-5.5,2.4-9.8
				L1433.9,231.8L1433.9,231.8z"/>
			<path class="st1" d="M1478.9,251.9h-6.6l-17-27v27h-6.6v-38.1h6.6l17,27.1v-27.1h6.6V251.9z"/>
			<path class="st1" d="M1524.7,243h-14.8l-3.1,8.9h-6.9l14.4-38.1h5.9l14.4,38.1h-6.9L1524.7,243z M1511.8,237.7h11l-5.5-15.8
				L1511.8,237.7z"/>
			<path class="st1" d="M1570.8,251.9h-6.6l-17-27v27h-6.6v-38.1h6.6l17,27.1v-27.1h6.6V251.9z"/>
			<path class="st1" d="M1580.3,251.9v-38.1h11.3c3.4,0,6.4,0.8,9,2.3s4.6,3.6,6.1,6.4c1.4,2.8,2.1,5.9,2.1,9.5v1.9
				c0,3.6-0.7,6.8-2.2,9.5c-1.4,2.7-3.5,4.8-6.1,6.3s-5.7,2.2-9.1,2.2L1580.3,251.9L1580.3,251.9z M1586.9,219.1v27.4h4.3
				c3.5,0,6.1-1.1,8-3.3s2.8-5.3,2.8-9.3v-2.1c0-4.1-0.9-7.3-2.7-9.5s-4.4-3.3-7.8-3.3h-4.6V219.1z"/>
			<path class="st1" d="M1630.9,237.2h-7.4v14.7h-6.6v-38.1h13.4c4.4,0,7.8,1,10.2,3c2.4,2,3.6,4.8,3.6,8.6c0,2.5-0.6,4.7-1.8,6.4
				c-1.2,1.7-2.9,3-5.1,4l8.6,15.9v0.3h-7.1L1630.9,237.2z M1623.5,231.9h6.8c2.2,0,4-0.6,5.2-1.7c1.3-1.1,1.9-2.7,1.9-4.6
				c0-2-0.6-3.6-1.7-4.7c-1.2-1.1-2.9-1.7-5.2-1.7h-7L1623.5,231.9L1623.5,231.9z"/>
			<path class="st1" d="M1682.3,233.8c0,3.7-0.6,7-1.9,9.8s-3.1,5-5.5,6.5s-5.2,2.3-8.3,2.3c-3.1,0-5.8-0.8-8.3-2.3
				c-2.4-1.5-4.3-3.7-5.6-6.5c-1.3-2.8-2-6-2-9.7v-2.1c0-3.7,0.7-7,2-9.8s3.2-5,5.6-6.5s5.2-2.3,8.3-2.3c3.1,0,5.9,0.7,8.3,2.2
				s4.3,3.6,5.6,6.4c1.3,2.8,2,6.1,2,9.8v2.2H1682.3z M1675.7,231.8c0-4.2-0.8-7.5-2.4-9.7c-1.6-2.3-3.9-3.4-6.8-3.4
				s-5.1,1.1-6.7,3.4c-1.6,2.2-2.4,5.4-2.5,9.5v2.2c0,4.2,0.8,7.4,2.4,9.7s3.9,3.4,6.8,3.4s5.2-1.1,6.8-3.3c1.6-2.2,2.4-5.5,2.4-9.8
				L1675.7,231.8L1675.7,231.8z"/>
			<path class="st1" d="M1697.5,251.9h-6.6v-38.1h6.6V251.9z"/>
			<path class="st1" d="M1707.3,251.9v-38.1h11.3c3.4,0,6.4,0.8,9,2.3s4.6,3.6,6.1,6.4c1.4,2.8,2.1,5.9,2.1,9.5v1.9
				c0,3.6-0.7,6.8-2.2,9.5c-1.4,2.7-3.5,4.8-6.1,6.3s-5.7,2.2-9.1,2.2L1707.3,251.9L1707.3,251.9z M1713.9,219.1v27.4h4.3
				c3.5,0,6.1-1.1,8-3.3s2.8-5.3,2.8-9.3v-2.1c0-4.1-0.9-7.3-2.7-9.5s-4.4-3.3-7.8-3.3h-4.6V219.1z"/>
			<path class="st1" d="M1778.8,242c0-1.7-0.6-3-1.8-3.9c-1.2-0.9-3.3-1.8-6.4-2.7s-5.5-2-7.3-3.1c-3.5-2.2-5.2-5-5.2-8.5
				c0-3.1,1.3-5.6,3.8-7.6s5.8-3,9.7-3c2.7,0,5,0.5,7.1,1.5s3.7,2.4,4.9,4.2c1.2,1.8,1.8,3.8,1.8,6h-6.6c0-2-0.6-3.5-1.9-4.6
				c-1.2-1.1-3-1.7-5.4-1.7c-2.2,0-3.8,0.5-5,1.4s-1.8,2.2-1.8,3.9c0,1.4,0.6,2.5,1.9,3.5c1.3,0.9,3.4,1.8,6.4,2.7s5.3,1.9,7.1,3
				c1.8,1.1,3.1,2.4,4,3.9c0.8,1.5,1.3,3.2,1.3,5.1c0,3.2-1.2,5.7-3.7,7.6c-2.4,1.9-5.7,2.8-9.9,2.8c-2.8,0-5.3-0.5-7.6-1.5
				s-4.1-2.4-5.4-4.2s-1.9-3.9-1.9-6.3h6.6c0,2.2,0.7,3.8,2.1,5s3.5,1.8,6.1,1.8c2.3,0,4-0.5,5.2-1.4
				C1778.2,244.8,1778.8,243.6,1778.8,242z"/>
			<path class="st1" d="M1820.7,213.8v25.5c0,4-1.3,7.3-3.9,9.6c-2.6,2.4-6,3.5-10.3,3.5c-4.4,0-7.8-1.2-10.4-3.5s-3.8-5.6-3.8-9.7
				v-25.4h6.6v25.4c0,2.5,0.6,4.5,1.9,5.8s3.2,2,5.7,2c5.1,0,7.6-2.7,7.6-8v-25.2L1820.7,213.8L1820.7,213.8z"/>
			<path class="st1" d="M1843.3,237.2h-7.4v14.7h-6.6v-38.1h13.4c4.4,0,7.8,1,10.2,3c2.4,2,3.6,4.8,3.6,8.6c0,2.5-0.6,4.7-1.8,6.4
				c-1.2,1.7-2.9,3-5.1,4l8.6,15.9v0.3h-7.1L1843.3,237.2z M1836,231.9h6.8c2.2,0,4-0.6,5.2-1.7c1.3-1.1,1.9-2.7,1.9-4.6
				c0-2-0.6-3.6-1.7-4.7c-1.2-1.1-2.9-1.7-5.2-1.7h-7L1836,231.9L1836,231.9z"/>
		</g>
	</g>
</g>
</svg>
